<?xml version="1.0" standalone="no"?>
<!DOCTYPE svg PUBLIC "-//W3C//DTD SVG 20010904//EN"
 "http://www.w3.org/TR/2001/REC-SVG-20010904/DTD/svg10.dtd">
<svg version="1.0" xmlns="http://www.w3.org/2000/svg"
 width="512.000000pt" height="512.000000pt" viewBox="0 0 512.000000 512.000000"
 preserveAspectRatio="xMidYMid meet">

<g transform="translate(0.000000,512.000000) scale(0.100000,-0.100000)"
fill="#000000" stroke="none">
<path d="M3915 4950 c-214 -33 -430 -144 -586 -299 -135 -136 -230 -303 -280
-497 -32 -122 -33 -369 -1 -484 55 -203 146 -366 281 -501 135 -135 298 -226
501 -281 115 -32 362 -31 484 1 393 102 669 379 779 781 29 109 29 371 0 480
-57 206 -148 367 -286 504 -136 136 -297 227 -487 275 -97 25 -307 36 -405 21z
m305 -740 l0 -150 150 0 150 0 0 -150 0 -150 -150 0 -150 0 0 -150 0 -150
-150 0 -150 0 0 150 0 150 -150 0 -150 0 0 150 0 150 150 0 150 0 0 150 0 150
150 0 150 0 0 -150z"/>
<path d="M0 4210 l0 -150 475 0 475 0 5 -22 c18 -76 525 -2364 525 -2370 0 -5
-34 -8 -75 -8 -151 0 -256 -40 -351 -135 -177 -176 -177 -453 1 -630 100 -101
198 -135 384 -135 l108 0 -13 -52 c-38 -144 8 -301 121 -413 137 -137 340
-172 513 -87 183 89 288 309 238 500 l-13 52 327 0 327 0 -13 -52 c-38 -144 8
-301 121 -413 137 -137 340 -172 513 -87 183 89 288 309 238 500 l-13 52 163
0 164 0 0 150 0 150 -1441 0 -1441 0 -40 22 c-101 57 -101 199 0 256 l40 22
1424 0 1424 0 166 637 c91 351 164 639 163 640 -1 2 -33 -6 -71 -18 -158 -45
-232 -52 -604 -56 l-356 -3 4 67 3 68 -58 32 c-32 17 -94 57 -137 88 -43 31
-81 53 -84 51 -3 -3 -11 -72 -18 -153 -7 -82 -13 -149 -14 -150 0 -2 -139 -3
-309 -3 l-310 0 -5 43 c-6 42 -46 521 -46 545 0 9 51 12 221 12 l220 0 -21 30
c-18 26 -84 161 -118 243 l-12 27 -705 0 -705 0 -5 23 c-3 12 -46 204 -95 427
-49 223 -92 415 -95 428 l-5 22 -595 0 -595 0 0 -150z m2210 -1073 c0 -26 37
-478 44 -539 l4 -38 -334 0 -334 0 -5 23 c-20 83 -125 562 -125 569 0 4 169 8
375 8 l375 0 0 -23z m74 -919 c6 -43 46 -522 46 -545 0 -10 -61 -13 -270 -13
l-270 0 -5 23 c-20 83 -125 562 -125 569 0 4 139 8 309 8 l310 0 5 -42z m870
5 c-7 -62 -44 -514 -44 -540 l0 -23 -240 0 -240 0 0 23 c0 26 -37 478 -44 540
l-4 37 288 0 288 0 -4 -37z m953 25 c-2 -7 -38 -142 -78 -300 l-74 -288 -272
0 c-253 0 -273 1 -273 18 0 25 39 489 46 540 l5 42 326 0 c256 0 324 -3 320
-12z m-2067 -1508 c45 -23 80 -80 80 -130 0 -76 -74 -150 -151 -150 -73 0
-149 76 -149 150 0 48 35 107 78 129 48 26 93 26 142 1z m1500 0 c45 -23 80
-80 80 -130 0 -76 -74 -150 -151 -150 -73 0 -149 76 -149 150 0 48 35 107 78
129 48 26 93 26 142 1z"/>
</g>
</svg>
