<?xml version="1.0" standalone="no"?>
<!DOCTYPE svg PUBLIC "-//W3C//DTD SVG 20010904//EN"
 "http://www.w3.org/TR/2001/REC-SVG-20010904/DTD/svg10.dtd">
<svg version="1.0" xmlns="http://www.w3.org/2000/svg"
 width="512.000000pt" height="512.000000pt" viewBox="0 0 512.000000 512.000000"
 preserveAspectRatio="xMidYMid meet">

<g transform="translate(0.000000,512.000000) scale(0.100000,-0.100000)"
fill="#000000" stroke="none">
<path d="M2103 4940 c-36 -21 -47 -40 -57 -89 -13 -70 -17 -71 -228 -71 l-188
0 0 -150 0 -150 535 0 535 0 0 150 0 150 -187 0 c-104 0 -193 4 -199 8 -16 11
-34 48 -34 72 0 49 -60 100 -117 100 -15 0 -42 -9 -60 -20z"/>
<path d="M554 4651 c-17 -11 -36 -34 -43 -52 -8 -23 -11 -610 -11 -2188 0
-2033 1 -2158 18 -2191 9 -19 28 -40 42 -47 20 -10 361 -13 1603 -13 1702 0
1619 -2 1647 49 7 13 10 277 9 783 l0 763 -21 -53 c-12 -31 -48 -83 -89 -130
l-69 -77 0 -550 c0 -482 -2 -553 -16 -573 l-15 -22 -1444 0 -1444 0 -15 22
c-14 20 -16 231 -16 2044 0 1911 1 2023 18 2043 17 21 23 21 407 24 l390 2 3
93 3 92 -463 0 c-437 0 -465 -1 -494 -19z"/>
<path d="M2820 4575 l0 -95 390 0 c377 0 391 -1 410 -20 19 -19 20 -34 20
-402 l1 -383 87 215 87 215 3 240 c2 132 0 250 -3 263 -3 12 -20 31 -38 42
-31 19 -52 20 -494 20 l-463 0 0 -95z"/>
<path d="M4070 4380 c-10 -10 -28 -36 -38 -57 -29 -59 -105 -253 -101 -258 6
-6 572 -225 574 -222 10 15 97 247 104 278 17 76 17 75 -256 182 -137 53 -252
97 -256 97 -4 0 -16 -9 -27 -20z m266 -140 c70 -27 131 -55 136 -62 22 -36 -5
-98 -43 -98 -27 0 -271 98 -281 112 -22 36 5 98 43 98 10 0 75 -22 145 -50z"/>
<path d="M810 2415 l0 -1945 1350 0 1350 0 0 437 0 438 -29 -30 c-17 -17 -97
-106 -180 -200 l-151 -170 112 -3 c124 -3 148 -13 148 -63 0 -62 51 -59 -865
-59 l-835 0 -15 24 c-19 29 -11 72 15 86 12 6 252 10 629 10 l611 0 0 108 c0
59 5 289 10 511 l10 405 270 688 270 687 0 511 0 510 -1350 0 -1350 0 0 -1945z
m824 1644 c37 -29 33 -58 -14 -104 l-40 -39 0 -245 c0 -213 -2 -247 -17 -263
-15 -17 -37 -18 -285 -18 -255 0 -269 1 -288 20 -19 19 -20 33 -20 285 0 252
1 266 20 285 19 19 33 20 261 20 l242 0 43 40 c50 46 61 48 98 19z m1758 -566
c22 -20 23 -61 1 -85 -15 -17 -55 -18 -845 -18 -815 0 -828 0 -848 20 -24 24
-25 48 -4 78 l15 22 831 0 c760 0 833 -1 850 -17z m-1755 -295 c32 -30 29 -52
-17 -102 l-40 -43 0 -242 c0 -228 -1 -242 -20 -261 -19 -19 -33 -20 -285 -20
-252 0 -266 1 -285 20 -19 19 -20 33 -20 285 0 252 1 266 20 285 19 19 33 20
263 20 l243 0 39 40 c44 45 68 50 102 18z m1381 -560 c7 -7 12 -27 12 -44 0
-66 25 -64 -673 -64 -388 0 -635 4 -647 10 -26 14 -34 57 -15 86 l15 24 648 0
c491 0 651 -3 660 -12z m-1378 -298 c30 -30 25 -55 -20 -104 l-40 -43 0 -239
c0 -132 -4 -244 -8 -250 -20 -30 -55 -34 -302 -34 l-251 0 -24 25 -25 24 0
258 c0 218 2 262 16 281 15 22 18 22 260 22 l245 0 42 40 c47 44 77 50 107 20z
m1198 -556 c26 -18 29 -60 8 -90 -14 -18 -32 -19 -571 -19 -539 0 -557 1 -571
19 -20 28 -17 63 6 86 20 20 33 20 563 20 475 0 545 -2 565 -16z m-1194 -306
c24 -34 19 -55 -24 -102 l-40 -43 0 -238 c0 -208 -2 -241 -17 -257 -15 -17
-37 -18 -289 -18 -271 0 -273 0 -288 22 -14 19 -16 64 -16 284 l0 263 26 20
c25 20 39 21 262 21 l235 0 38 35 c47 42 90 47 113 13z"/>
<path d="M1094 3867 c-2 -7 -3 -89 -2 -182 l3 -170 183 -3 182 -2 0 135 c0 74
-3 135 -7 135 -4 0 -41 -34 -84 -75 -42 -41 -84 -75 -94 -75 -9 0 -48 30 -86
67 -74 72 -84 98 -49 133 30 30 61 25 100 -15 l34 -35 43 42 c24 23 43 46 43
50 0 4 -59 8 -130 8 -97 0 -132 -3 -136 -13z"/>
<path d="M1094 3007 c-2 -7 -3 -89 -2 -182 l3 -170 180 0 180 0 3 140 3 140
-78 -77 c-102 -102 -116 -103 -201 -14 -65 67 -72 87 -46 124 22 32 64 29 99
-8 16 -16 34 -30 40 -30 6 0 31 20 55 45 l44 45 -137 0 c-103 0 -139 -3 -143
-13z"/>
<path d="M1090 1980 l0 -180 185 0 185 0 0 137 0 138 -78 -78 c-100 -100 -112
-100 -199 -14 -67 68 -79 100 -45 130 33 30 61 26 107 -15 l36 -31 47 46 47
47 -143 0 -142 0 0 -180z"/>
<path d="M1090 1120 l0 -180 185 0 185 0 0 137 0 136 -79 -76 c-54 -53 -86
-77 -103 -77 -31 0 -158 126 -158 157 0 22 43 63 66 63 8 0 31 -16 52 -35 l39
-34 43 44 44 45 -137 0 -137 0 0 -180z"/>
<path d="M3855 3881 c-16 -39 -25 -74 -21 -78 15 -15 561 -222 567 -215 9 9
60 134 56 138 -1 1 -126 50 -277 109 -151 59 -280 109 -286 112 -7 2 -23 -26
-39 -66z"/>
<path d="M3771 3667 c-5 -12 -8 -23 -7 -24 8 -9 571 -221 577 -217 5 3 9 13 9
23 0 14 -44 35 -197 94 -109 42 -238 92 -286 111 l-88 35 -8 -22z"/>
<path d="M3715 3520 c-10 -15 -605 -1534 -602 -1536 6 -7 571 -224 574 -221 5
5 603 1529 603 1537 0 3 -60 29 -132 57 -73 28 -202 78 -285 111 -84 33 -155
56 -158 52z m67 -187 c10 -9 18 -26 18 -38 0 -33 -417 -1086 -439 -1108 -24
-25 -64 -17 -87 18 -16 24 -10 41 196 567 117 299 220 551 228 561 19 22 60
22 84 0z m-74 -639 c12 -8 22 -25 22 -37 0 -29 -187 -507 -207 -529 -9 -10
-27 -18 -40 -18 -26 0 -63 32 -63 55 0 24 191 508 208 528 19 21 51 22 80 1z"/>
<path d="M3090 1801 c0 -32 -3 -112 -6 -177 l-7 -120 151 -58 152 -59 43 49
c24 27 76 85 115 129 39 44 72 83 72 86 0 3 -96 43 -212 89 -117 45 -234 91
-260 101 l-48 19 0 -59z"/>
<path d="M3076 1214 c-3 -87 -5 -159 -2 -161 4 -4 202 215 208 231 2 6 -179
85 -198 86 0 0 -4 -70 -8 -156z"/>
</g>
</svg>
