<?xml version="1.0" standalone="no"?>
<!DOCTYPE svg PUBLIC "-//W3C//DTD SVG 20010904//EN"
 "http://www.w3.org/TR/2001/REC-SVG-20010904/DTD/svg10.dtd">
<svg version="1.0" xmlns="http://www.w3.org/2000/svg"
 width="512.000000pt" height="512.000000pt" viewBox="0 0 512.000000 512.000000"
 preserveAspectRatio="xMidYMid meet">

<g transform="translate(0.000000,512.000000) scale(0.100000,-0.100000)"
fill="#000000" stroke="none">
<path d="M2385 4954 c-16 -2 -73 -9 -125 -15 -571 -65 -1134 -366 -1516 -813
-527 -614 -713 -1448 -493 -2215 70 -246 172 -468 310 -675 382 -576 975 -950
1668 -1053 144 -21 492 -24 631 -5 301 42 608 142 855 280 666 370 1102 999
1221 1764 25 156 25 507 1 669 -69 460 -247 858 -545 1218 -445 536 -1147 858
-1852 849 -69 0 -138 -3 -155 -4z m525 -99 c1040 -164 1833 -988 1955 -2031
47 -400 -17 -826 -179 -1194 -519 -1179 -1891 -1711 -3070 -1189 -833 368
-1375 1202 -1376 2114 0 927 541 1757 1390 2131 197 87 430 151 653 179 145
18 481 13 627 -10z"/>
<path d="M1236 3766 l-216 -225 0 -1079 c0 -1193 -3 -1136 65 -1225 23 -30 55
-55 96 -76 l62 -31 1086 0 c1029 0 1088 1 1126 19 51 23 111 89 124 138 17 59
14 488 -2 502 -8 6 -79 12 -183 13 l-169 3 -3 1084 c-2 853 -5 1087 -15 1093
-6 4 -404 8 -883 8 l-872 0 -216 -224z m1914 -1163 c0 -1270 1 -1309 20 -1350
l19 -43 -973 0 -974 0 -48 33 c-27 18 -56 49 -68 72 -21 40 -21 50 -24 1108
l-2 1067 193 0 c137 0 196 3 205 12 9 9 12 69 12 210 l0 198 820 0 820 0 0
-1307z m-1723 970 c-3 -2 -63 -2 -135 -1 l-130 3 131 139 132 139 3 -138 c1
-76 1 -140 -1 -142z m2083 -2049 c0 -191 -2 -209 -21 -244 -27 -47 -66 -70
-121 -70 -50 0 -98 26 -125 67 -15 23 -18 55 -21 226 -2 109 -1 205 2 213 4
11 34 14 146 14 l140 0 0 -206z"/>
<path d="M2555 3386 c-9 -20 -21 -36 -28 -36 -18 0 -74 -60 -86 -93 -16 -41
-14 -65 10 -113 23 -49 65 -78 124 -88 66 -11 75 -16 91 -48 28 -54 -9 -108
-73 -108 -41 0 -71 25 -83 70 -9 32 -15 40 -34 40 -39 0 -51 -24 -36 -73 12
-42 70 -107 94 -107 8 0 16 -13 19 -29 11 -52 77 -50 77 3 0 14 12 27 38 39
51 24 75 61 79 121 3 37 -1 61 -15 86 -22 40 -84 80 -125 80 -100 0 -134 104
-49 149 47 25 107 -8 118 -65 11 -62 74 -57 74 6 0 47 -34 99 -82 125 -25 13
-38 28 -40 45 -2 19 -10 26 -31 28 -23 3 -30 -2 -42 -32z"/>
<path d="M1324 3276 c-3 -8 -4 -23 -2 -33 3 -17 29 -18 480 -21 434 -2 476 -1
482 14 4 9 4 25 1 35 -6 18 -27 19 -481 19 -404 0 -475 -2 -480 -14z"/>
<path d="M1332 3048 c-16 -16 -15 -43 2 -57 9 -8 143 -10 476 -9 428 3 464 4
474 21 8 12 8 22 0 35 -10 16 -46 17 -475 20 -353 2 -468 -1 -477 -10z"/>
<path d="M1324 2796 c-3 -14 -3 -30 1 -35 4 -8 158 -11 481 -11 430 0 475 2
481 16 3 9 2 24 -4 33 -9 14 -60 16 -481 19 l-472 2 -6 -24z"/>
<path d="M1332 2578 c-16 -16 -15 -43 2 -57 10 -8 225 -10 791 -9 728 3 779 4
789 21 8 12 8 22 0 35 -10 16 -61 17 -791 20 -597 2 -782 -1 -791 -10z"/>
<path d="M1324 2324 c-4 -15 -2 -30 5 -37 16 -16 1542 -23 1572 -7 14 8 19 19
17 38 l-3 27 -792 3 -793 2 -6 -26z"/>
<path d="M1338 2109 c-21 -12 -23 -42 -4 -58 10 -8 226 -10 797 -9 l784 3 3
24 c8 52 26 51 -797 51 -502 -1 -772 -4 -783 -11z"/>
<path d="M1332 1868 c-18 -18 -14 -46 7 -58 14 -7 271 -9 792 -8 723 3 773 4
783 21 8 12 8 22 0 35 -10 16 -61 17 -791 20 -597 2 -782 -1 -791 -10z"/>
<path d="M1332 1628 c-18 -18 -14 -46 7 -58 14 -7 271 -9 792 -8 723 3 773 4
783 21 8 12 8 22 0 35 -10 16 -61 17 -791 20 -597 2 -782 -1 -791 -10z"/>
<path d="M3390 3535 c-19 -23 -36 -161 -21 -179 6 -7 48 -19 93 -26 75 -11 83
-10 95 6 7 10 13 21 13 25 0 14 -31 39 -48 39 -27 1 23 26 98 51 141 46 321
22 446 -59 296 -192 342 -595 95 -842 -210 -209 -530 -214 -755 -10 -57 51
-70 59 -86 50 -37 -20 -24 -54 41 -113 68 -62 165 -116 254 -143 82 -25 248
-25 330 0 317 95 508 411 440 730 -47 222 -234 413 -460 471 -127 32 -299 14
-415 -45 l-60 -30 0 33 c0 51 -33 74 -60 42z"/>
<path d="M3665 3316 c-238 -75 -353 -328 -251 -551 112 -245 430 -310 627
-127 273 252 99 695 -270 691 -36 0 -84 -6 -106 -13z m252 -97 c68 -33 119
-84 154 -158 34 -70 33 -187 -2 -261 -32 -68 -84 -122 -152 -158 -45 -23 -63
-27 -142 -27 -78 0 -97 4 -140 27 -115 61 -179 163 -179 288 0 123 60 227 164
284 95 52 195 53 297 5z"/>
<path d="M3752 3198 c-8 -8 -12 -56 -12 -149 l0 -138 84 -65 c86 -68 103 -75
124 -54 25 25 11 48 -60 102 l-73 55 4 116 c3 120 -4 145 -38 145 -9 0 -22 -5
-29 -12z"/>
</g>
</svg>
